# xmcd
# 
# Track frame offsets:
#     150
#     16298
#     30334
#     43404
#     64944
#     81809
#     97971
#     115013
#     132129
#     150129
#     167112
#     183646
#     193768
#     206178
#     217675
#     238404
#     250267
#     262346
#     278030
#     297054
#     312495
#     325258
# 
# Disc length: 4535
# 
# Revision: 4
# Processed by: cddbd v1.5.2PL0 Copyright (c) Steve Scherf et al.
# Submitted via: BonkEnc v1.0.6
# 
DISCID=4011b516
DTITLE=Duduca and Dalvan - O Melhor de Duduca e Dalvan
DYEAR=2004
DGENRE=Sertanejo
TTITLE0=Mulher Maravilha
TTITLE1=Espinheira
TTITLE2=Dama De Vermelho
TTITLE3=Berrante De Ouro
TTITLE4=A Periquita
TTITLE5=Rastro Na Areia
TTITLE6=Massa Falida
TTITLE7=Te Amo, Te Amo, Te Amo
TTITLE8=Pirâmide Do Amor
TTITLE9=Utopia
TTITLE10=Meus Pedaços
TTITLE11=Moreninha Moreninha
TTITLE12=Vestido Branco
TTITLE13=Quem Sou Eu
TTITLE14=Amigo
TTITLE15=Pé De Cedro
TTITLE16=Amor De Caminhoneiro
TTITLE17=Eu Disse Não
TTITLE18=Igrejinha Da Serra
TTITLE19=Braços Abertos
TTITLE20=Um Milhagre De Amor
TTITLE21=Quem Quer Um Corpo
EXTD=
EXTT0=
EXTT1=
EXTT2=
EXTT3=
EXTT4=
EXTT5=
EXTT6=
EXTT7=
EXTT8=
EXTT9=
EXTT10=
EXTT11=
EXTT12=
EXTT13=
EXTT14=
EXTT15=
EXTT16=
EXTT17=
EXTT18=
EXTT19=
EXTT20=
EXTT21=
PLAYORDER=
